<?xml version="1.0" encoding="UTF-8"?>
<svg width="16px" height="16px" viewBox="0 0 16 16" version="1.1" xmlns="http://www.w3.org/2000/svg" xmlns:xlink="http://www.w3.org/1999/xlink">
    <!-- Generator: Sketch 55.2 (78181) - https://sketchapp.com -->
    <title>icons/addpatient</title>
    <desc>Created with Sketch.</desc>
    <g id="icons/addpatient" stroke="none" stroke-width="1" fill="none" fill-rule="evenodd">
        <path d="M7.6171875,7.125 C7.03385125,7.70833625 6.32812914,8 5.5,8 C4.67187086,8 3.96484668,7.70703418 3.37890625,7.12109375 C2.79296582,6.53515332 2.5,5.82812914 2.5,5 C2.5,4.17187086 2.79296582,3.46484668 3.37890625,2.87890625 C3.96484668,2.29296582 4.67187086,2 5.5,2 C6.32812914,2 7.03515332,2.29296582 7.62109375,2.87890625 C8.20703418,3.46484668 8.5,4.17187086 8.5,5 C8.5,5.82812914 8.20573211,6.53645539 7.6171875,7.125 Z M13,9 L15.75,9 C15.8177087,9 15.8763018,9.02473934 15.9257812,9.07421875 C15.9752607,9.12369816 16,9.18229133 16,9.25 L16,10.75 C16,10.8177087 15.9752607,10.8763018 15.9257812,10.9257812 C15.8763018,10.9752607 15.8177087,11 15.75,11 L13,11 L13,13.75 C13,13.8177087 12.9752607,13.8763018 12.9257812,13.9257812 C12.8763018,13.9752607 12.8177087,14 12.75,14 L11.25,14 C11.1822913,14 11.1236982,13.9752607 11.0742188,13.9257812 C11.0247393,13.8763018 11,13.8177087 11,13.75 L11,11 L8.25,11 C8.18229133,11 8.12369816,10.9752607 8.07421875,10.9257812 C8.02473934,10.8763018 8,10.8177087 8,10.75 L8,9.25 C8,9.18229133 8.02473934,9.12369816 8.07421875,9.07421875 C8.12369816,9.02473934 8.18229133,9 8.25,9 L11,9 L11,6.25 C11,6.18229133 11.0247393,6.12369816 11.0742188,6.07421875 C11.1236982,6.02473934 11.1822913,6 11.25,6 L12.75,6 C12.8177087,6 12.8763018,6.02473934 12.9257812,6.07421875 C12.9752607,6.12369816 13,6.18229133 13,6.25 L13,9 Z M7.25,10.75 C7.25,11.0208347 7.34895734,11.2552073 7.546875,11.453125 C7.74479266,11.6510427 7.97916531,11.75 8.25,11.75 L10.25,11.75 L10.25,13.609375 C9.89583156,13.869793 9.45052352,14 8.9140625,14 L2.0859375,14 C1.45572602,14 0.950522734,13.8203143 0.5703125,13.4609375 C0.190102266,13.1015607 0,12.606774 0,11.9765625 C0,11.7005195 0.00911449219,11.4309909 0.02734375,11.1679688 C0.0455730078,10.9049466 0.0820309766,10.6210953 0.13671875,10.3164062 C0.191406523,10.0117172 0.26041625,9.72916797 0.34375,9.46875 C0.42708375,9.20833203 0.539061797,8.95442832 0.6796875,8.70703125 C0.820313203,8.45963418 0.981769922,8.24869879 1.1640625,8.07421875 C1.34635508,7.89973871 1.5690091,7.76041719 1.83203125,7.65625 C2.0950534,7.55208281 2.38541508,7.5 2.703125,7.5 C2.80208383,7.5 2.90364531,7.54427039 3.0078125,7.6328125 C3.41927289,7.95052242 3.82161262,8.18880129 4.21484375,8.34765625 C4.60807488,8.50651121 5.03645602,8.5859375 5.5,8.5859375 C5.96354398,8.5859375 6.39192512,8.50651121 6.78515625,8.34765625 C7.17838738,8.18880129 7.58072711,7.95052242 7.9921875,7.6328125 C8.09635469,7.54427039 8.19791617,7.5 8.296875,7.5 C8.98437844,7.5 9.54947695,7.7499975 9.9921875,8.25 L8.25,8.25 C7.97916531,8.25 7.74479266,8.34895734 7.546875,8.546875 C7.34895734,8.74479266 7.25,8.97916531 7.25,9.25 L7.25,10.75 Z" id="" fill="#9B9B9B"></path>
    </g>
</svg>